<svg width="257" height="67" viewBox="0 0 257 67" fill="none" xmlns="http://www.w3.org/2000/svg">
<path d="M10.9688 8.875V43H4.52344V8.875H10.9688ZM31.9219 14.0547L22.1953 43H15.375L28.125 8.875H32.4844L31.9219 14.0547ZM40.0547 43L30.2812 14.0547L29.6953 8.875H34.0781L46.8984 43H40.0547ZM39.6094 30.3203V35.4062H21.3047V30.3203H39.6094ZM53.2266 8.875H58.8047L68.1328 34.5625L77.4375 8.875H83.0391L70.3594 43H65.8828L53.2266 8.875ZM50.4141 8.875H55.875L56.8594 32.4766V43H50.4141V8.875ZM80.3672 8.875H85.8516V43H79.4062V32.4766L80.3672 8.875Z" fill="white"/>
<path d="M135.461 25.3516V38.6406C134.961 39.2812 134.172 39.9766 133.094 40.7266C132.031 41.4766 130.641 42.125 128.922 42.6719C127.203 43.2031 125.094 43.4688 122.594 43.4688C120.422 43.4688 118.438 43.1094 116.641 42.3906C114.844 41.6562 113.297 40.5859 112 39.1797C110.703 37.7734 109.703 36.0547 109 34.0234C108.297 31.9922 107.945 29.6719 107.945 27.0625V24.8125C107.945 22.2031 108.273 19.8828 108.93 17.8516C109.602 15.8203 110.555 14.1016 111.789 12.6953C113.039 11.2891 114.531 10.2187 116.266 9.48438C118.016 8.75 119.969 8.38281 122.125 8.38281C125.016 8.38281 127.391 8.85937 129.25 9.8125C131.125 10.7656 132.562 12.0781 133.562 13.75C134.562 15.4063 135.188 17.3125 135.438 19.4688H129.156C128.984 18.2812 128.641 17.2422 128.125 16.3516C127.609 15.4453 126.875 14.7422 125.922 14.2422C124.984 13.7266 123.766 13.4688 122.266 13.4688C121 13.4688 119.883 13.7188 118.914 14.2188C117.945 14.7187 117.133 15.4453 116.477 16.3984C115.82 17.3516 115.32 18.5312 114.977 19.9375C114.648 21.3438 114.484 22.9531 114.484 24.7656V27.0625C114.484 28.8906 114.672 30.5156 115.047 31.9375C115.422 33.3438 115.961 34.5312 116.664 35.5C117.383 36.4531 118.266 37.1797 119.312 37.6797C120.375 38.1641 121.578 38.4062 122.922 38.4062C124.141 38.4062 125.148 38.3047 125.945 38.1016C126.758 37.8828 127.406 37.625 127.891 37.3281C128.375 37.0312 128.75 36.7422 129.016 36.4609V30.0625H122.242V25.3516H135.461ZM155.055 37.6094V25.9141C155.055 25.0547 154.906 24.3125 154.609 23.6875C154.312 23.0625 153.859 22.5781 153.25 22.2344C152.641 21.8906 151.867 21.7188 150.93 21.7188C150.102 21.7188 149.375 21.8594 148.75 22.1406C148.141 22.4219 147.672 22.8203 147.344 23.3359C147.016 23.8359 146.852 24.4141 146.852 25.0703H140.641C140.641 24.0234 140.891 23.0312 141.391 22.0938C141.891 21.1406 142.602 20.2969 143.523 19.5625C144.461 18.8125 145.578 18.2266 146.875 17.8047C148.188 17.3828 149.656 17.1719 151.281 17.1719C153.203 17.1719 154.914 17.5 156.414 18.1562C157.93 18.7969 159.117 19.7656 159.977 21.0625C160.852 22.3594 161.289 23.9922 161.289 25.9609V37.0234C161.289 38.2891 161.367 39.375 161.523 40.2812C161.695 41.1719 161.945 41.9453 162.273 42.6016V43H155.969C155.672 42.3594 155.445 41.5469 155.289 40.5625C155.133 39.5625 155.055 38.5781 155.055 37.6094ZM155.922 27.5547L155.969 31.2344H152.055C151.086 31.2344 150.234 31.3359 149.5 31.5391C148.766 31.7266 148.164 32.0078 147.695 32.3828C147.227 32.7422 146.875 33.1797 146.641 33.6953C146.406 34.1953 146.289 34.7656 146.289 35.4062C146.289 36.0312 146.43 36.5938 146.711 37.0938C147.008 37.5938 147.43 37.9922 147.977 38.2891C148.539 38.5703 149.195 38.7109 149.945 38.7109C151.039 38.7109 151.992 38.4922 152.805 38.0547C153.617 37.6016 154.25 37.0547 154.703 36.4141C155.156 35.7734 155.398 35.1641 155.43 34.5859L157.211 37.2578C156.992 37.8984 156.664 38.5781 156.227 39.2969C155.789 40.0156 155.227 40.6875 154.539 41.3125C153.852 41.9375 153.023 42.4531 152.055 42.8594C151.086 43.2656 149.961 43.4688 148.68 43.4688C147.039 43.4688 145.57 43.1406 144.273 42.4844C142.977 41.8281 141.953 40.9297 141.203 39.7891C140.453 38.6484 140.078 37.3516 140.078 35.8984C140.078 34.5547 140.328 33.3672 140.828 32.3359C141.328 31.3047 142.07 30.4375 143.055 29.7344C144.039 29.0156 145.258 28.4766 146.711 28.1172C148.18 27.7422 149.859 27.5547 151.75 27.5547H155.922ZM173.43 7V43H167.219V7H173.43ZM185.898 7V43H179.688V7H185.898ZM203.195 43.4688C201.273 43.4688 199.547 43.1562 198.016 42.5312C196.484 41.9062 195.18 41.0391 194.102 39.9297C193.039 38.8047 192.219 37.5 191.641 36.0156C191.078 34.5156 190.797 32.9062 190.797 31.1875V30.25C190.797 28.2969 191.078 26.5234 191.641 24.9297C192.203 23.3203 193 21.9375 194.031 20.7812C195.062 19.625 196.297 18.7344 197.734 18.1094C199.172 17.4844 200.758 17.1719 202.492 17.1719C204.289 17.1719 205.875 17.4766 207.25 18.0859C208.625 18.6797 209.773 19.5234 210.695 20.6172C211.617 21.7109 212.312 23.0234 212.781 24.5547C213.25 26.0703 213.484 27.75 213.484 29.5938V32.1953H193.609V27.9297H207.391V27.4609C207.359 26.4766 207.172 25.5781 206.828 24.7656C206.484 23.9375 205.953 23.2812 205.234 22.7969C204.516 22.2969 203.586 22.0469 202.445 22.0469C201.523 22.0469 200.719 22.25 200.031 22.6562C199.359 23.0469 198.797 23.6094 198.344 24.3438C197.906 25.0625 197.578 25.9219 197.359 26.9219C197.141 27.9219 197.031 29.0312 197.031 30.25V31.1875C197.031 32.25 197.172 33.2344 197.453 34.1406C197.75 35.0469 198.18 35.8359 198.742 36.5078C199.32 37.1641 200.008 37.6797 200.805 38.0547C201.617 38.4141 202.539 38.5938 203.57 38.5938C204.867 38.5938 206.039 38.3438 207.086 37.8438C208.148 37.3281 209.07 36.5703 209.852 35.5703L212.969 38.8047C212.438 39.5859 211.719 40.3359 210.812 41.0547C209.922 41.7734 208.844 42.3594 207.578 42.8125C206.312 43.25 204.852 43.4688 203.195 43.4688ZM223.82 22.8203V43H217.633V17.6406H223.492L223.82 22.8203ZM231.531 17.4766L231.438 23.2422C231.094 23.1797 230.703 23.1328 230.266 23.1016C229.844 23.0703 229.445 23.0547 229.07 23.0547C228.117 23.0547 227.281 23.1875 226.562 23.4531C225.844 23.7031 225.242 24.0703 224.758 24.5547C224.289 25.0391 223.93 25.6328 223.68 26.3359C223.43 27.0234 223.289 27.8047 223.258 28.6797L221.922 28.5156C221.922 26.9062 222.086 25.4141 222.414 24.0391C222.742 22.6641 223.219 21.4609 223.844 20.4297C224.469 19.3984 225.25 18.6016 226.188 18.0391C227.141 17.4609 228.234 17.1719 229.469 17.1719C229.812 17.1719 230.18 17.2031 230.57 17.2656C230.977 17.3125 231.297 17.3828 231.531 17.4766ZM242.781 40.1875L249.578 17.6406H256.211L246.039 46.8438C245.805 47.4688 245.5 48.1484 245.125 48.8828C244.766 49.6172 244.281 50.3125 243.672 50.9688C243.062 51.6406 242.297 52.1875 241.375 52.6094C240.469 53.0312 239.367 53.2422 238.07 53.2422C237.508 53.2422 237.008 53.2031 236.57 53.125C236.133 53.0469 235.672 52.9453 235.188 52.8203V48.1797C235.344 48.1953 235.523 48.2031 235.727 48.2031C235.945 48.2188 236.133 48.2266 236.289 48.2266C237.195 48.2266 237.945 48.1172 238.539 47.8984C239.133 47.6953 239.609 47.3594 239.969 46.8906C240.344 46.4375 240.656 45.8438 240.906 45.1094L242.781 40.1875ZM239.43 17.6406L245.172 36.3203L246.18 42.8594L241.914 43.6328L232.75 17.6406H239.43Z" fill="white"/>
<path d="M108.72 58.8383C109.902 58.8383 111.141 58.7787 112.323 58.7192C112.83 58.7192 113.28 58.6596 113.787 58.6596C115.926 58.5404 118.065 58.4213 120.204 58.3021C122.794 58.183 125.328 58.0043 127.917 57.8851C131.577 57.6468 135.236 57.4681 138.895 57.2298C139.74 57.1702 140.584 57.1702 141.429 57.1106C143.568 56.9915 145.707 56.8723 147.846 56.8128C149.986 56.6936 152.125 56.5745 154.264 56.5149C155.109 56.4553 155.953 56.3958 156.798 56.3958C160.175 56.2766 163.61 56.1574 166.987 56.0383C169.07 55.9787 171.153 55.9192 173.293 55.8C174.137 55.8 174.925 55.7404 175.77 55.7404C179.035 55.6809 182.357 55.6213 185.622 55.5617C188.887 55.5021 192.096 55.4426 195.361 55.383C196.206 55.383 197.05 55.383 197.951 55.383C200.09 55.383 202.173 55.383 204.312 55.383C207.634 55.383 210.899 55.383 214.221 55.3234C215.29 55.3234 216.36 55.3234 217.43 55.3234C219.682 55.3234 221.934 55.3234 224.185 55.3234C224.354 55.3234 224.579 55.3234 224.748 55.3234C219.682 55.383 214.559 55.4426 209.492 55.5617C207.353 55.6213 205.27 55.6213 203.13 55.6809C202.229 55.6809 201.272 55.6809 200.372 55.7404C197.275 55.8 194.235 55.9192 191.139 55.9787C187.592 56.0979 184.045 56.1575 180.499 56.2766C179.88 56.2766 179.317 56.3362 178.697 56.3362C176.783 56.4553 174.925 56.5149 173.011 56.634C169.183 56.8128 165.355 56.9915 161.527 57.1702C160.964 57.1702 160.401 57.2298 159.838 57.2894C157.98 57.4085 156.066 57.5872 154.208 57.7064C150.83 57.9447 147.509 58.183 144.131 58.4213C143.23 58.4809 142.273 58.6 141.372 58.6596C139.233 58.8383 137.094 59.017 134.954 59.2553C132.252 59.4936 129.494 59.7319 126.791 59.9702C123.019 60.3277 119.191 60.6851 115.419 61.0426C114.518 61.1021 113.618 61.2213 112.661 61.2809C111.028 61.4596 109.395 61.6383 107.763 61.817C107.594 61.817 107.425 61.9362 107.425 62.1745C107.425 62.3532 107.594 62.5319 107.763 62.5319C108.382 62.5319 108.945 62.5915 109.564 62.5915C109.508 62.7702 109.452 62.949 109.452 63.1277C109.452 63.783 109.958 64.3787 110.634 64.3787C115.307 64.0809 119.923 63.7234 124.596 63.4851C128.649 63.3064 132.702 63.0681 136.756 62.8894C141.203 62.6511 145.707 62.4128 150.155 62.2341C151.562 62.1745 152.969 62.1149 154.377 61.9958C154.771 61.9958 155.165 61.9362 155.615 61.9362C162.821 61.7575 170.027 61.5192 177.234 61.3404C181.062 61.2213 184.946 61.1021 188.774 61.0426C190.182 60.983 191.533 60.983 192.94 60.9234C200.315 60.8043 207.69 60.6851 215.065 60.566C218.218 60.5064 221.371 60.4468 224.523 60.3872C227.225 60.3277 229.928 60.3277 232.63 60.2085C234.882 60.1489 237.077 60.0298 239.329 59.9702C240.455 59.9106 241.581 59.9106 242.651 59.8511C245.184 59.6723 247.718 59.4936 250.251 59.3149C250.082 59.5532 250.082 59.9106 250.138 60.1489C250.195 60.4468 250.364 60.6851 250.645 60.8043C250.87 60.9234 251.208 61.0426 251.433 60.9234C251.996 60.6851 252.559 60.4468 253.066 60.2085C253.066 60.2085 253.066 60.2085 253.01 60.2085C253.066 60.2085 253.066 60.1489 253.122 60.1489C253.178 60.1489 253.235 60.0894 253.235 60.0894H253.178C253.46 59.9702 253.741 59.8511 254.079 59.6724C254.361 59.5532 254.698 59.3745 254.98 59.2553C255.318 59.0766 255.599 58.8979 255.937 58.7192C256.275 58.5404 256.5 58.0638 256.5 57.6468C256.5 57.4085 256.444 57.2298 256.331 56.9915C256.219 56.7532 255.937 56.4553 255.656 56.3958C255.374 56.3362 255.093 56.2766 254.811 56.2766C254.755 56.2766 254.698 56.2766 254.642 56.2766C254.473 56.2766 254.248 56.2766 254.079 56.3362C253.629 56.3957 253.235 56.4553 252.784 56.4553C252.447 56.4553 252.109 56.5149 251.715 56.5149C250.758 56.5745 249.857 56.634 248.9 56.7532C248.675 56.7532 248.393 56.8128 248.168 56.8128C248.281 56.6936 248.337 56.5745 248.337 56.4553C248.393 56.3362 248.393 56.217 248.393 56.0979C248.393 56.0383 248.393 55.9192 248.449 55.8596C248.449 55.7404 248.449 55.6213 248.393 55.5617C248.393 55.5617 248.449 55.5617 248.449 55.5021C248.618 55.383 248.787 55.2638 248.9 55.0255C249.012 54.8468 249.069 54.6085 249.069 54.3702C249.069 54.1319 249.012 53.9532 248.9 53.7149C248.844 53.6553 248.787 53.5362 248.731 53.4766C248.562 53.2979 248.393 53.2383 248.224 53.1787C247.887 53.0596 247.492 53 247.098 53C246.761 53 246.479 53 246.141 53C245.691 53 245.241 53 244.79 53C244.171 53 243.495 53 242.876 53C241.187 53 239.498 53 237.809 53C236.233 53 234.6 53 233.024 53C231.56 53 230.153 53 228.689 53C222.891 53 217.148 53.0596 211.35 53.1192C207.015 53.1787 202.68 53.2383 198.345 53.2383C196.431 53.2383 194.46 53.2979 192.546 53.3574C188.211 53.4766 183.877 53.5362 179.542 53.6553C178.303 53.6553 177.065 53.7149 175.826 53.7149C175.094 53.7149 174.419 53.7745 173.687 53.7745C169.408 53.9532 165.13 54.1319 160.851 54.3106C159.556 54.3702 158.261 54.4298 156.91 54.4894C156.178 54.4894 155.447 54.5489 154.715 54.6085C150.436 54.8468 146.214 55.0851 141.935 55.3234C139.74 55.4426 137.544 55.5617 135.348 55.7404C131.577 55.9787 127.805 56.217 124.089 56.5149C120.824 56.7532 117.559 56.9319 114.293 57.1106C113.787 57.1702 113.28 57.1702 112.717 57.2298C111.872 57.2894 111.028 57.2894 110.184 57.3489C109.452 57.4085 108.72 57.4085 107.932 57.4085C107.875 57.2298 107.65 57.0511 107.481 57.0511C106.975 57.1106 106.524 57.1702 106.018 57.2298C105.792 57.2298 105.567 57.3489 105.511 57.6468C105.455 57.9447 105.624 58.2426 105.849 58.3021C106.074 58.3617 106.243 58.4213 106.468 58.4809C106.693 58.5404 106.862 58.5404 107.087 58.5404C107.65 58.7787 108.157 58.7787 108.72 58.8383ZM240.455 56.8723C241.131 56.8723 241.863 56.8723 242.538 56.8723C242.595 57.0511 242.707 57.1702 242.82 57.2894C242.538 57.2894 242.257 57.3489 242.032 57.3489C241.525 57.3489 241.018 57.4085 240.512 57.4085C238.26 57.4681 236.064 57.5872 233.812 57.6468C232.799 57.7064 231.786 57.766 230.772 57.766C229.196 57.766 227.563 57.8255 225.987 57.8255C222.328 57.8851 218.725 57.9447 215.065 58.0043C207.972 58.1234 200.935 58.2426 193.841 58.3617C188.774 58.4213 183.708 58.6 178.641 58.7787C171.041 59.017 163.384 59.1958 155.784 59.4341C154.264 59.4936 152.744 59.5532 151.224 59.6724C146.889 59.9106 142.554 60.0894 138.22 60.3277C133.997 60.566 129.719 60.7447 125.496 60.983C125.102 60.983 124.708 61.0426 124.314 61.0426C125.44 60.9234 126.622 60.8638 127.748 60.7447C131.745 60.4468 135.743 60.0894 139.74 59.7915C141.147 59.6723 142.554 59.5532 143.906 59.4341C144.637 59.3745 145.369 59.3149 146.045 59.3149C150.211 59.0766 154.377 58.7787 158.543 58.5404C159.331 58.4809 160.175 58.4213 160.964 58.3617C162.146 58.3021 163.328 58.2426 164.454 58.2426C168.733 58.0638 173.011 57.8851 177.29 57.7064C178.247 57.6468 179.204 57.6468 180.105 57.5872C180.33 57.5872 180.611 57.5872 180.837 57.5872C181.512 57.5872 182.188 57.5872 182.807 57.5277C187.086 57.4085 191.42 57.3489 195.699 57.2298C197.669 57.1702 199.64 57.1106 201.61 57.1106C207.972 57.0511 214.39 56.9915 220.751 56.9319C227.451 56.9319 233.981 56.9319 240.455 56.8723Z" fill="#FFDD00"/>
<path d="M117.219 67C117.405 67 117.556 66.84 117.556 66.6426C117.556 66.4452 117.405 66.2852 117.219 66.2852C117.032 66.2852 116.881 66.4452 116.881 66.6426C116.881 66.84 117.032 67 117.219 67Z" fill="#FFDD00"/>
</svg>
