<svg width="24" height="25" viewBox="0 0 24 25" fill="none" xmlns="http://www.w3.org/2000/svg">
<path d="M13.5 2.76953C13.5 2.76953 15.8335 2.98166 18.8033 5.95151C21.7731 8.92136 21.9853 11.2548 21.9853 11.2548" stroke="white" stroke-width="1.5" stroke-linecap="round"/>
<path d="M14.207 6.30469C14.207 6.30469 15.197 6.58754 16.6819 8.07246C18.1668 9.55739 18.4497 10.5473 18.4497 10.5473" stroke="white" stroke-width="1.5" stroke-linecap="round"/>
<path d="M3.75187 7.69505C3.72967 7.28143 3.37637 6.96412 2.96275 6.98632C2.54913 7.00852 2.23183 7.36183 2.25403 7.77544L3.75187 7.69505ZM4.71772 3.86144C4.43246 4.16177 4.44467 4.63648 4.745 4.92175C5.04533 5.20701 5.52004 5.1948 5.80531 4.89447L4.71772 3.86144ZM10.6641 20.5816C11.0148 20.802 11.4778 20.6964 11.6982 20.3457C11.9186 19.995 11.8129 19.532 11.4622 19.3116L10.6641 20.5816ZM15.113 20.8277C14.7076 20.7428 14.3101 21.0027 14.2252 21.4081C14.1403 21.8135 14.4001 22.211 14.8056 22.2959L15.113 20.8277ZM15.6446 16.313L16.1 15.8335L15.0124 14.8005L14.557 15.28L15.6446 16.313ZM17.5987 15.6316L19.5092 16.7313L20.2575 15.4313L18.347 14.3316L17.5987 15.6316ZM19.8779 19.0112L18.4574 20.5068L19.545 21.5398L20.9655 20.0443L19.8779 19.0112ZM8.35922 16.728C4.48309 12.6471 3.83291 9.20487 3.75187 7.69505L2.25403 7.77544C2.35328 9.62467 3.13846 13.4096 7.27163 17.761L8.35922 16.728ZM9.73456 10.0909L10.0214 9.78894L8.93379 8.75591L8.64697 9.05787L9.73456 10.0909ZM10.2467 6.02943L8.98571 4.24594L7.76092 5.11191L9.02191 6.89539L10.2467 6.02943ZM9.19077 9.57438C8.64697 9.05787 8.64628 9.0586 8.64558 9.05933C8.64535 9.05959 8.64465 9.06033 8.64417 9.06083C8.64322 9.06185 8.64225 9.06288 8.64127 9.06394C8.6393 9.06606 8.63726 9.06827 8.63517 9.07058C8.63097 9.07519 8.62652 9.08018 8.62184 9.08556C8.61249 9.09632 8.60221 9.10862 8.59122 9.12251C8.56924 9.15029 8.54437 9.18442 8.51828 9.22519C8.46597 9.30695 8.40923 9.41462 8.36119 9.54964C8.26348 9.82421 8.21024 10.1878 8.27677 10.6419C8.40748 11.534 8.99204 12.7337 10.5194 14.3417L11.607 13.3087C10.1793 11.8056 9.82767 10.8799 9.76092 10.4244C9.72873 10.2047 9.76144 10.0889 9.77438 10.0525C9.78165 10.0321 9.78641 10.0264 9.78176 10.0337C9.7795 10.0372 9.775 10.0438 9.76744 10.0534C9.76365 10.0582 9.7591 10.0637 9.75366 10.0699C9.75094 10.0731 9.748 10.0764 9.74482 10.0799C9.74323 10.0816 9.74158 10.0834 9.73987 10.0852C9.73902 10.0862 9.73815 10.0871 9.73726 10.088C9.73682 10.0885 9.73614 10.0892 9.73592 10.0895C9.73524 10.0902 9.73456 10.0909 9.19077 9.57438ZM10.5194 14.3417C12.0422 15.945 13.1924 16.5753 14.0699 16.7178C14.5201 16.7909 14.8846 16.7325 15.1606 16.6237C15.2955 16.5705 15.4023 16.508 15.4824 16.4512C15.5223 16.4228 15.5556 16.3959 15.5825 16.3724C15.5959 16.3606 15.6078 16.3496 15.6181 16.3396C15.6233 16.3347 15.628 16.3299 15.6324 16.3255C15.6346 16.3233 15.6368 16.3211 15.6388 16.319C15.6398 16.318 15.6408 16.317 15.6417 16.316C15.6422 16.3155 15.6429 16.3147 15.6432 16.3145C15.6439 16.3137 15.6446 16.313 15.1008 15.7965C14.557 15.28 14.5577 15.2793 14.5583 15.2786C14.5586 15.2783 14.5592 15.2776 14.5597 15.2771C14.5606 15.2762 14.5615 15.2753 14.5623 15.2744C14.5641 15.2726 14.5658 15.2708 14.5675 15.2691C14.5708 15.2658 14.574 15.2626 14.577 15.2597C14.5831 15.2539 14.5885 15.2489 14.5933 15.2447C14.6029 15.2363 14.61 15.2309 14.6146 15.2277C14.6239 15.221 14.623 15.2233 14.6102 15.2283C14.5909 15.2359 14.5001 15.268 14.3103 15.2372C13.9078 15.1718 13.0391 14.8165 11.607 13.3087L10.5194 14.3417ZM8.98571 4.24594C7.97212 2.81236 5.9439 2.5705 4.71772 3.86144L5.80531 4.89447C6.32814 4.34402 7.24857 4.38726 7.76092 5.11191L8.98571 4.24594ZM18.4574 20.5068C18.1783 20.8006 17.8864 20.958 17.6026 20.986L17.75 22.4788C18.497 22.405 19.1016 22.0066 19.545 21.5398L18.4574 20.5068ZM10.0214 9.78894C10.9889 8.77026 11.0574 7.17609 10.2467 6.02943L9.02191 6.89539C9.44406 7.49246 9.37932 8.28684 8.93379 8.75591L10.0214 9.78894ZM19.5092 16.7313C20.3301 17.2038 20.4907 18.3661 19.8779 19.0112L20.9655 20.0443C22.2705 18.6704 21.8904 16.3712 20.2575 15.4313L19.5092 16.7313ZM16.1 15.8335C16.4854 15.4277 17.086 15.3365 17.5987 15.6316L18.347 14.3316C17.2485 13.6993 15.8862 13.8806 15.0124 14.8005L16.1 15.8335ZM11.4622 19.3116C10.4785 18.6934 9.43151 17.8569 8.35922 16.728L7.27163 17.761C8.42566 18.976 9.56899 19.8934 10.6641 20.5816L11.4622 19.3116ZM17.6026 20.986C17.0561 21.04 16.1912 21.0535 15.113 20.8277L14.8056 22.2959C16.0541 22.5573 17.0742 22.5455 17.75 22.4788L17.6026 20.986Z" fill="white"/>
</svg>
