<svg width="24" height="25" viewBox="0 0 24 25" fill="none" xmlns="http://www.w3.org/2000/svg">
<path d="M14.5 10.2701H9.5M3.02832 10.7701L10.2246 15.5867C10.8661 16.0144 11.1869 16.2282 11.5336 16.3113C11.8399 16.3847 12.1593 16.3847 12.4657 16.3113C12.8124 16.2282 13.1332 16.0144 13.7747 15.5867L20.971 10.7701M10.2981 4.83894L4.49814 8.48141C3.95121 8.82489 3.67775 8.99662 3.4794 9.22878C3.30385 9.43426 3.17176 9.67319 3.09111 9.93114C3 10.2226 3 10.5455 3 11.1913V17.5701C3 18.6902 3 19.2503 3.21799 19.6781C3.40973 20.0544 3.71569 20.3604 4.09202 20.5521C4.51984 20.7701 5.0799 20.7701 6.2 20.7701H17.8C18.9201 20.7701 19.4802 20.7701 19.908 20.5521C20.2843 20.3604 20.5903 20.0544 20.782 19.6781C21 19.2503 21 18.6902 21 17.5701V11.1913C21 10.5455 21 10.2226 20.9089 9.93114C20.8282 9.67319 20.6962 9.43426 20.5206 9.22878C20.3223 8.99662 20.0488 8.82489 19.5019 8.48141L13.7019 4.83893C13.0846 4.45131 12.776 4.25749 12.4449 4.18194C12.152 4.11514 11.848 4.11514 11.5551 4.18194C11.224 4.25749 10.9154 4.45131 10.2981 4.83894Z" stroke="white" stroke-width="2" stroke-linecap="round" stroke-linejoin="round"/>
</svg>
