<svg width="24" height="25" viewBox="0 0 24 25" fill="none" xmlns="http://www.w3.org/2000/svg">
<g clip-path="url(#clip0_767_8181)">
<path fill-rule="evenodd" clip-rule="evenodd" d="M12 12.0195C10.7572 12.0195 9.75 11.0123 9.75 9.76953C9.75 8.52678 10.7572 7.51953 12 7.51953C13.2428 7.51953 14.25 8.52678 14.25 9.76953C14.25 11.0123 13.2428 12.0195 12 12.0195ZM12 6.01953C9.92925 6.01953 8.25 7.69803 8.25 9.76953C8.25 11.841 9.92925 13.5195 12 13.5195C14.0708 13.5195 15.75 11.841 15.75 9.76953C15.75 7.69803 14.0708 6.01953 12 6.01953ZM12 22.5195C10.7527 22.5263 4.5 12.9053 4.5 9.76953C4.5 5.62803 7.85775 2.26953 12 2.26953C16.1423 2.26953 19.5 5.62803 19.5 9.76953C19.5 12.8633 13.2277 22.5263 12 22.5195ZM12 0.769531C7.02975 0.769531 3 4.79928 3 9.76953C3 13.533 10.5037 24.7778 12 24.7695C13.473 24.7778 21 13.482 21 9.76953C21 4.79928 16.9703 0.769531 12 0.769531Z" fill="white"/>
</g>
<defs>
<clipPath id="clip0_767_8181">
<rect width="24" height="24" fill="white" transform="translate(0 0.769531)"/>
</clipPath>
</defs>
</svg>
