<svg width="28" height="29" viewBox="0 0 28 29" fill="none" xmlns="http://www.w3.org/2000/svg">
<g filter="url(#filter0_i_1093_289)">
<rect y="0.769531" width="28" height="28" rx="8" fill="#FFDB28"/>
<rect x="0.25" y="1.01953" width="27.5" height="27.5" rx="7.75" stroke="#FFDB28" stroke-width="0.5"/>
<path opacity="0.12" d="M9.86866 18.2294L9 24.7695L13.5884 22.0164C13.7381 21.9266 13.8129 21.8817 13.8928 21.8642C13.9634 21.8487 14.0366 21.8487 14.1072 21.8642C14.1871 21.8817 14.2619 21.9266 14.4116 22.0164L19 24.7695L18.1319 18.2266L17.8827 18.8282C17.728 19.2018 17.4312 19.4986 17.0577 19.6533C16.6841 19.808 16.2644 19.808 15.8909 19.6533L14.583 19.1115C14.2094 18.9572 13.7899 18.9575 13.4166 19.1124L12.1077 19.6538C11.7343 19.8081 11.315 19.808 10.9418 19.6534C10.5685 19.4988 10.2719 19.2024 10.1171 18.8292L9.86866 18.2294Z" fill="#00452E"/>
<path d="M9.86866 18.2295L9 24.7695L13.5884 22.0165C13.7381 21.9267 13.8129 21.8818 13.8928 21.8643C13.9634 21.8487 14.0366 21.8487 14.1072 21.8643C14.1871 21.8818 14.2619 21.9267 14.4116 22.0165L19 24.7695L18.1319 18.2266M18.4259 7.01841C18.5803 7.39193 18.8768 7.68883 19.25 7.84384L20.5589 8.38601C20.9325 8.54074 21.2292 8.83753 21.384 9.21107C21.5387 9.58462 21.5387 10.0043 21.384 10.3779L20.8422 11.6859C20.6874 12.0596 20.6872 12.4797 20.8427 12.8533L21.3835 14.1609C21.4602 14.3459 21.4997 14.5442 21.4997 14.7445C21.4998 14.9448 21.4603 15.1431 21.3837 15.3281C21.3071 15.5132 21.1947 15.6813 21.0531 15.8229C20.9114 15.9645 20.7433 16.0768 20.5582 16.1534L19.2503 16.6952C18.8768 16.8496 18.5799 17.1461 18.4249 17.5194L17.8827 18.8283C17.728 19.2018 17.4312 19.4986 17.0577 19.6534C16.6841 19.8081 16.2644 19.8081 15.8909 19.6534L14.583 19.1116C14.2094 18.9572 13.7899 18.9575 13.4166 19.1124L12.1077 19.6538C11.7343 19.8082 11.315 19.8081 10.9418 19.6535C10.5685 19.4989 10.2719 19.2024 10.1171 18.8293L9.57479 17.52C9.42035 17.1465 9.12391 16.8496 8.75064 16.6946L7.44175 16.1524C7.06838 15.9977 6.77169 15.7011 6.61691 15.3278C6.46213 14.9544 6.46192 14.5349 6.61633 14.1614L7.1581 12.8534C7.31244 12.4799 7.31213 12.0603 7.15722 11.687L6.61623 10.3771C6.53953 10.1921 6.50003 9.99379 6.5 9.79351C6.49997 9.59322 6.5394 9.39489 6.61604 9.20986C6.69268 9.02482 6.80504 8.8567 6.94668 8.7151C7.08832 8.5735 7.25647 8.46119 7.44152 8.38461L8.74947 7.84282C9.12265 7.68851 9.41936 7.39243 9.57448 7.01957L10.1166 5.71064C10.2714 5.33709 10.5681 5.04031 10.9417 4.88558C11.3152 4.73085 11.7349 4.73085 12.1084 4.88558L13.4164 5.42737C13.7899 5.58172 14.2095 5.5814 14.5828 5.42649L15.8922 4.88642C16.2657 4.73178 16.6853 4.73181 17.0588 4.88651C17.4322 5.0412 17.729 5.3379 17.8837 5.71135L18.426 7.02068L18.4259 7.01841Z" stroke="#121212" stroke-width="2" stroke-linecap="round" stroke-linejoin="round"/>
</g>
<defs>
<filter id="filter0_i_1093_289" x="0" y="-3.23047" width="28" height="32" filterUnits="userSpaceOnUse" color-interpolation-filters="sRGB">
<feFlood flood-opacity="0" result="BackgroundImageFix"/>
<feBlend mode="normal" in="SourceGraphic" in2="BackgroundImageFix" result="shape"/>
<feColorMatrix in="SourceAlpha" type="matrix" values="0 0 0 0 0 0 0 0 0 0 0 0 0 0 0 0 0 0 127 0" result="hardAlpha"/>
<feOffset dy="-4"/>
<feGaussianBlur stdDeviation="4"/>
<feComposite in2="hardAlpha" operator="arithmetic" k2="-1" k3="1"/>
<feColorMatrix type="matrix" values="0 0 0 0 1 0 0 0 0 1 0 0 0 0 1 0 0 0 0.64 0"/>
<feBlend mode="normal" in2="shape" result="effect1_innerShadow_1093_289"/>
</filter>
</defs>
</svg>
