<svg width="65" height="64" viewBox="0 0 65 64" fill="none" xmlns="http://www.w3.org/2000/svg">
<rect x="0.5" width="64" height="64" rx="16" fill="#121212"/>
<path fill-rule="evenodd" clip-rule="evenodd" d="M23.5 22.25C23.9142 22.25 24.25 22.5858 24.25 23V23.5394L26.0882 23.0799C28.3461 22.5154 30.7315 22.7772 32.8132 23.8181L32.921 23.872C34.6472 24.7351 36.6214 24.9657 38.5 24.5236L41.6096 23.792C41.8465 23.7362 42.0958 23.7989 42.2781 23.96C42.4605 24.1212 42.5533 24.3608 42.5271 24.6028C42.344 26.2931 42.25 28.0105 42.25 29.75C42.25 31.504 42.3455 33.2355 42.5317 34.9395C42.5728 35.3161 42.3266 35.6642 41.9579 35.751L38.8436 36.4837C36.6234 37.0062 34.2902 36.7336 32.2501 35.7136L32.1424 35.6597C30.381 34.779 28.3626 34.5574 26.452 35.0351L24.25 35.5856V41C24.25 41.4142 23.9142 41.75 23.5 41.75C23.0858 41.75 22.75 41.4142 22.75 41V23C22.75 22.5858 23.0858 22.25 23.5 22.25Z" fill="#FFDD00"/>
</svg>
