<svg width="65" height="64" viewBox="0 0 65 64" fill="none" xmlns="http://www.w3.org/2000/svg">
<rect x="0.5" width="64" height="64" rx="16" fill="#FFDD00"/>
<path fill-rule="evenodd" clip-rule="evenodd" d="M27.5 25C27.5 22.2386 29.7386 20 32.5 20C35.2614 20 37.5 22.2386 37.5 25C37.5 27.7614 35.2614 30 32.5 30C29.7386 30 27.5 27.7614 27.5 25Z" fill="#121212"/>
<path fill-rule="evenodd" clip-rule="evenodd" d="M37.5 29C37.5 26.7909 39.2909 25 41.5 25C43.7091 25 45.5 26.7909 45.5 29C45.5 31.2091 43.7091 33 41.5 33C39.2909 33 37.5 31.2091 37.5 29Z" fill="#121212"/>
<path fill-rule="evenodd" clip-rule="evenodd" d="M19.5 29C19.5 26.7909 21.2909 25 23.5 25C25.7091 25 27.5 26.7909 27.5 29C27.5 31.2091 25.7091 33 23.5 33C21.2909 33 19.5 31.2091 19.5 29Z" fill="#121212"/>
<path fill-rule="evenodd" clip-rule="evenodd" d="M24.9131 36.1567C26.5104 33.6592 29.3111 32 32.5 32C35.6893 32 38.4903 33.6596 40.0875 36.1576C41.1917 37.8846 41.6694 39.9669 41.4453 41.9972C41.4103 42.3145 41.2259 42.596 40.949 42.7549C38.4592 44.1835 35.5734 45 32.5 45C29.4266 45 26.5408 44.1835 24.051 42.7549C23.7741 42.596 23.5897 42.3145 23.5547 41.9972C23.3306 39.9665 23.8085 37.8838 24.9131 36.1567Z" fill="#121212"/>
<path d="M23.2764 35.0049C23.2603 35.0296 23.2444 35.0543 23.2285 35.0791C21.9412 37.0919 21.3521 39.4889 21.533 41.852C20.7222 41.7289 19.9356 41.5308 19.1806 41.2649L19.0273 41.2109C18.7477 41.1124 18.5523 40.8585 18.5288 40.563L18.5159 40.401C18.5054 40.2685 18.5 40.1348 18.5 40C18.5 37.3135 20.6187 35.1219 23.2764 35.0049Z" fill="#121212"/>
<path d="M43.4675 41.8519C43.6483 39.4893 43.0595 37.0928 41.7727 35.0802C41.7566 35.0551 41.7404 35.03 41.7241 35.0049C44.3815 35.1222 46.5 37.3137 46.5 40C46.5 40.1348 46.4946 40.2685 46.4841 40.401L46.4712 40.563C46.4477 40.8585 46.2523 41.1124 45.9727 41.2109L45.8194 41.2649C45.0645 41.5307 44.2781 41.7288 43.4675 41.8519Z" fill="#121212"/>
</svg>
