<svg width="65" height="64" viewBox="0 0 65 64" fill="none" xmlns="http://www.w3.org/2000/svg">
<rect x="0.5" width="64" height="64" rx="16" fill="#FFDD00"/>
<path d="M32.5 36C34.7091 36 36.5 34.2091 36.5 32C36.5 29.7909 34.7091 28 32.5 28C30.2909 28 28.5 29.7909 28.5 32C28.5 34.2091 30.2909 36 32.5 36Z" fill="#121212"/>
<path fill-rule="evenodd" clip-rule="evenodd" d="M18.2645 31.2623C20.2476 25.3009 25.8705 21 32.5007 21C39.1277 21 44.7486 25.297 46.7341 31.2539C46.8945 31.7354 46.8947 32.2562 46.7345 32.7377C44.7515 38.6991 39.1285 43 32.4984 43C25.8713 43 20.2504 38.7031 18.265 32.7461C18.1045 32.2647 18.1044 31.7438 18.2645 31.2623ZM39.5 32C39.5 35.866 36.366 39 32.5 39C28.634 39 25.5 35.866 25.5 32C25.5 28.134 28.634 25 32.5 25C36.366 25 39.5 28.134 39.5 32Z" fill="#121212"/>
</svg>
