<svg width="47" height="50" viewBox="0 0 47 50" fill="none" xmlns="http://www.w3.org/2000/svg">
<ellipse opacity="0.1" cx="23.5" cy="25" rx="23.5" ry="25" fill="#FFDD00"/>
<path d="M12.6631 24.656V24.625C12.9368 21 14.2158 18.281 16.4377 16.562C18.6294 14.812 21.0042 13.968 23.5914 13.968C26.3004 13.937 28.8272 14.874 31.0803 16.749C33.3635 18.593 34.4896 21.343 34.4896 24.905V25.124C34.4896 28.718 33.3635 31.405 31.0803 33.249C28.797 35.124 26.2702 36.062 23.5612 36.062H23.4395C20.7909 36.031 18.3557 35.093 16.1036 33.218C13.8505 31.374 12.6943 28.53 12.6641 24.655L12.6631 24.656ZM22.9213 19.75V14.812H22.1907C22.0387 15 21.917 15.218 21.7952 15.406C21.6734 15.594 21.5517 15.781 21.4299 16C21.3082 16.188 21.1562 16.438 21.0646 16.625C20.9429 16.813 20.8513 17 20.7597 17.219C20.5766 17.532 20.4247 17.844 20.3029 18.125C20.1509 18.406 20.0292 18.688 19.9376 18.938C20.1207 19.063 20.3331 19.219 20.5766 19.313C20.8503 19.407 21.125 19.501 21.3988 19.563C21.7036 19.626 21.9774 19.657 22.2209 19.688C22.4946 19.719 22.7381 19.751 22.9213 19.751V19.75ZM24.2002 14.813V19.719C24.3522 19.719 24.5353 19.75 24.7175 19.719C24.9006 19.719 25.113 19.688 25.2961 19.656C25.6312 19.593 26.0267 19.5 26.3316 19.406C26.6666 19.281 26.9706 19.125 27.1839 18.937C26.8186 18.031 26.4231 17.312 26.0267 16.624C25.6302 15.936 25.1743 15.343 24.6873 14.843V14.812H24.2002V14.813ZM20.9127 15.094V15.063C20.6994 15.157 20.486 15.313 20.2425 15.407C20.0292 15.501 19.7555 15.626 19.5421 15.751C19.1155 15.97 18.6898 16.22 18.2631 16.501C17.8677 16.782 17.4712 17.095 17.1371 17.407C17.2589 17.532 17.4108 17.657 17.5326 17.751C17.6543 17.845 17.8063 17.97 17.9592 18.095C18.081 18.158 18.233 18.251 18.3859 18.376C18.5378 18.47 18.721 18.595 18.9031 18.72C19.1467 18.157 19.3902 17.564 19.6951 17.032C20 16.469 20.3341 15.938 20.6692 15.469C20.6994 15.406 20.7305 15.344 20.7909 15.281C20.8211 15.25 20.8523 15.157 20.9127 15.094ZM30.227 17.406V17.375C29.4662 16.781 28.796 16.281 28.1268 15.969C27.4576 15.657 26.7874 15.344 26.1786 15.094C26.6657 15.594 27.0923 16.219 27.366 16.813C27.6709 17.438 27.9749 18.094 28.2184 18.719C28.3401 18.656 28.4921 18.594 28.6752 18.469C28.8272 18.375 29.0405 18.281 29.2236 18.188C29.4068 18.063 29.5587 17.938 29.7409 17.813C29.924 17.657 30.1062 17.532 30.2279 17.407L30.227 17.406ZM29.7097 24.375H33.2106C33.2106 23.219 32.9671 22.125 32.5102 21C32.0836 19.906 31.4748 19 30.714 18.219V18.188C30.562 18.438 30.3487 18.657 30.1354 18.813C29.8919 18.969 29.6785 19.094 29.435 19.219C29.2831 19.313 29.1301 19.438 28.9782 19.5C28.8262 19.594 28.6129 19.656 28.4609 19.75C28.5827 20 28.7045 20.281 28.8262 20.531C28.9178 20.812 29.0697 21.125 29.1311 21.406C29.3142 21.906 29.436 22.437 29.5578 22.969C29.6493 23.438 29.7097 23.938 29.7097 24.375ZM18.6908 19.75V19.719C18.4473 19.594 18.1735 19.5 17.9602 19.375C17.7469 19.219 17.5336 19.062 17.3514 18.937C17.1683 18.843 16.9861 18.718 16.8342 18.593C16.6822 18.468 16.5604 18.343 16.4387 18.218C15.6467 18.999 15.0691 19.874 14.7038 20.906C14.3083 21.937 14.0336 23.094 13.9119 24.344H17.6563C17.6563 23.469 17.778 22.625 17.9914 21.781C18.1745 20.906 18.4473 20.25 18.6908 19.75ZM22.9213 24.344V20.75C22.6777 20.781 22.3728 20.781 22.0991 20.75C21.7942 20.719 21.4903 20.625 21.2166 20.531C20.9731 20.468 20.6682 20.406 20.4247 20.312C20.1509 20.249 19.8762 20.124 19.6639 19.999C19.4808 20.312 19.3288 20.687 19.207 21.093C19.0551 21.468 18.9635 21.874 18.872 22.249C18.8106 22.624 18.7804 23.03 18.7502 23.374C18.72 23.718 18.6888 24.062 18.6888 24.343H22.9203L22.9213 24.344ZM24.2002 20.813V24.344H28.7054C28.7054 24.156 28.7054 23.938 28.6752 23.688C28.6139 23.469 28.5837 23.188 28.5535 22.938C28.4619 22.563 28.3703 22.157 28.2486 21.782C28.1268 21.438 28.0051 21.094 27.8531 20.813C27.7917 20.657 27.7313 20.469 27.67 20.344C27.5784 20.188 27.4868 20.094 27.4264 20C27.0914 20.25 26.6345 20.406 26.0871 20.531C25.5698 20.656 24.961 20.781 24.4126 20.812H24.1993L24.2002 20.813ZM17.6553 25.375H13.9109C13.9109 25.906 14.0025 26.5 14.1544 27.219C14.3064 27.969 14.6113 28.657 14.9464 29.407C15.0983 29.782 15.2814 30.157 15.4636 30.532C15.6769 30.876 15.9205 31.251 16.164 31.595C16.3471 31.47 16.5293 31.376 16.6812 31.282C16.8644 31.188 17.0767 31.063 17.2598 30.969C17.4732 30.875 17.6865 30.781 17.93 30.656C18.1433 30.562 18.4171 30.437 18.6908 30.312C18.4473 29.531 18.1735 28.781 17.9904 27.937C17.7771 27.124 17.6553 26.312 17.6553 25.406V25.375ZM22.9213 29.031V25.375H18.6898C18.6898 25.625 18.72 26 18.7814 26.375C18.8116 26.75 18.9031 27.156 18.9645 27.563C19.0863 28.001 19.1778 28.438 19.2996 28.813C19.4213 29.188 19.5431 29.501 19.6649 29.782C20.2133 29.563 20.7607 29.407 21.126 29.313C21.5215 29.188 21.8868 29.094 22.2521 29.063H22.5871C22.7089 29.032 22.8307 29.032 22.9222 29.032L22.9213 29.031ZM24.2002 25.375V29C24.4136 29.031 24.6571 29.063 24.9006 29.094C25.1743 29.125 25.5094 29.188 25.7831 29.25L26.24 29.344C26.392 29.407 26.5751 29.438 26.727 29.469C26.9102 29.532 27.0923 29.563 27.2755 29.625C27.4274 29.688 27.5803 29.719 27.7021 29.781C28.0976 28.75 28.3411 27.906 28.4941 27.187C28.646 26.499 28.7074 25.906 28.7074 25.406V25.375H24.2022H24.2002ZM33.2106 25.406V25.375H29.7097V25.563C29.6795 26.157 29.588 26.844 29.4662 27.563C29.3444 28.251 29.0707 29.063 28.7054 30.063C29.1925 30.313 29.6493 30.563 30.0146 30.813C30.3799 31.063 30.715 31.344 30.9585 31.594C31.4757 31.063 31.9326 30.344 32.3281 29.406C32.7236 28.5 32.9983 27.562 33.1502 26.562C33.1804 26.374 33.1804 26.187 33.2116 25.999V25.405L33.2106 25.406ZM22.9213 34.906V30.031C22.1605 30.156 21.5205 30.312 21.0335 30.437C20.5464 30.562 20.1811 30.687 19.9376 30.812C20.1207 31.281 20.3029 31.687 20.486 32.062C20.6692 32.406 20.8815 32.781 21.0646 33.093C21.126 33.218 21.2478 33.343 21.3384 33.499C21.4299 33.624 21.4903 33.78 21.5819 33.905C21.6734 34.061 21.765 34.249 21.8556 34.436C21.9774 34.592 22.0689 34.78 22.1907 34.905L22.9213 34.906ZM24.2002 34.906H24.9006C25.1743 34.687 25.449 34.375 25.6614 34.031C25.9049 33.687 26.1786 33.281 26.3618 32.937C26.5751 32.531 26.7884 32.156 26.9706 31.781C27.1527 31.406 27.3057 31.062 27.4274 30.812C27.0923 30.687 26.6355 30.562 26.1796 30.437C25.7237 30.312 25.0837 30.187 24.2012 30.062V34.906H24.2002ZM30.227 32.344V32.313C30.1656 32.219 30.0438 32.094 29.9532 32C29.8626 31.906 29.7097 31.781 29.5578 31.687C29.436 31.593 29.284 31.499 29.1009 31.406C28.9178 31.313 28.6743 31.187 28.4619 31.062C28.3401 31.312 28.1268 31.75 27.8229 32.343C27.5492 32.937 27.0621 33.656 26.4533 34.437C27.2141 34.312 27.8843 34.031 28.4931 33.656C29.1633 33.312 29.7409 32.843 30.2279 32.343L30.227 32.344ZM18.9031 31.344V31.313C18.6898 31.438 18.3547 31.594 18.0206 31.751C17.6553 31.907 17.2598 32.095 16.8945 32.345C17.1079 32.533 17.3212 32.72 17.5034 32.845C17.6865 33.001 17.8988 33.126 18.082 33.251C18.4171 33.47 18.8125 33.689 19.208 33.876C19.6035 34.063 20.0905 34.251 20.6994 34.439C20.486 34.189 20.3341 33.876 20.1821 33.626C20.0302 33.376 19.847 33.126 19.6951 32.876C19.5431 32.626 19.4213 32.345 19.2996 32.095C19.1476 31.845 19.0259 31.595 18.9041 31.345L18.9031 31.344Z" fill="#FFDD00"/>
</svg>
