<svg width="48" height="50" viewBox="0 0 48 50" fill="none" xmlns="http://www.w3.org/2000/svg">
<ellipse opacity="0.1" cx="23.75" cy="25" rx="23.5" ry="25" fill="#FFDD00"/>
<path fill-rule="evenodd" clip-rule="evenodd" d="M20.4366 15.7401C19.0031 15.8089 17.7605 16.182 16.7572 17.2456C15.7503 18.3148 15.4042 19.6428 15.3394 21.1531C15.299 22.0957 15.0633 29.2171 15.7468 31.0847C16.2078 32.3446 17.1155 33.3134 18.3099 33.8056C18.8672 34.0364 19.5034 34.1926 20.4366 34.2382C28.2398 34.6141 31.1324 34.4095 32.3522 31.0847C32.5686 30.4929 32.7176 29.8162 32.7587 28.8252C33.1154 20.4969 32.7009 18.6917 31.341 17.2456C30.2623 16.1001 28.9934 15.3204 20.4366 15.7401ZM20.5085 32.5633C19.6541 32.5223 19.1906 32.3708 18.8812 32.2433C18.1031 31.9213 17.5186 31.3017 17.2181 30.4782C16.6976 29.0591 16.8702 22.3192 16.9167 21.2286C16.9622 20.1604 17.1655 19.1841 17.8735 18.4303C18.7498 17.4998 19.8819 17.0437 27.5905 17.4141C28.5965 17.4625 29.5157 17.6785 30.2255 18.4303C31.1017 19.3609 31.5364 20.5754 31.1823 28.7501C31.1438 29.6574 31.001 30.1497 30.8809 30.4782C30.0879 32.6416 28.2635 32.942 20.5085 32.5633ZM27.6755 20.0215C27.6755 20.6375 28.1461 21.1384 28.727 21.1384C29.308 21.1384 29.7794 20.6375 29.7794 20.0215C29.7794 19.4055 29.308 18.905 28.727 18.905C28.1461 18.905 27.6755 19.4055 27.6755 20.0215ZM19.5498 24.9887C19.5498 27.6277 21.5644 29.7673 24.0495 29.7673C26.5346 29.7673 28.5492 27.6277 28.5492 24.9887C28.5492 22.3497 26.5346 20.2115 24.0495 20.2115C21.5644 20.2115 19.5498 22.3497 19.5498 24.9887ZM21.1289 24.9887C21.1289 23.2765 22.4363 21.8873 24.0495 21.8873C25.6627 21.8873 26.9701 23.2765 26.9701 24.9887C26.9701 26.7018 25.6627 28.0914 24.0495 28.0914C22.4363 28.0914 21.1289 26.7018 21.1289 24.9887Z" fill="#FFDD00"/>
</svg>
