<svg width="48" height="50" viewBox="0 0 48 50" fill="none" xmlns="http://www.w3.org/2000/svg">
<ellipse opacity="0.1" cx="24.25" cy="25" rx="23.5" ry="25" fill="#FFDD00"/>
<path fill-rule="evenodd" clip-rule="evenodd" d="M31.7982 32.8125H28.8628V27.3445C28.8628 25.8445 28.2412 25.0076 27.1265 25.0076C25.9134 25.0076 25.1935 25.8797 25.1935 27.3445V32.8125H22.2581V22.6562H25.1935V23.7984C25.1935 23.7984 26.1145 22.0779 28.1898 22.0779C30.2659 22.0779 31.7982 23.4266 31.7982 26.2173V32.8125ZM18.9132 21.0319C17.9232 21.0319 17.1211 20.1711 17.1211 19.1093C17.1211 18.0484 17.9232 17.1875 18.9132 17.1875C19.9024 17.1875 20.7045 18.0484 20.7045 19.1093C20.7052 20.1711 19.9024 21.0319 18.9132 21.0319ZM17.1211 32.8125H20.7904V22.6562H17.1211V32.8125Z" fill="#FFDD00"/>
</svg>
