<svg width="180" height="14" viewBox="0 0 180 14" fill="none" xmlns="http://www.w3.org/2000/svg">
<path d="M4.31691 5.83831C5.71837 5.83831 7.18658 5.77873 8.58804 5.71916C9.18867 5.71916 9.72256 5.65958 10.3232 5.65958C12.8592 5.54043 15.3952 5.42128 17.9311 5.30214C21.001 5.18299 24.0041 5.00426 27.074 4.88512C31.4119 4.64682 35.7498 4.46809 40.0876 4.22979C41.0887 4.17022 42.0897 4.17022 43.0908 4.11064C45.6267 3.9915 48.1627 3.87235 50.6987 3.81277C53.2347 3.69362 55.7707 3.57447 58.3067 3.5149C59.3077 3.45532 60.3088 3.39575 61.3098 3.39575C65.314 3.2766 69.3849 3.15745 73.3891 3.0383C75.8583 2.97873 78.3276 2.91916 80.8636 2.80001C81.8646 2.80001 82.7989 2.74043 83.8 2.74043C87.6707 2.68085 91.6081 2.62128 95.4789 2.56171C99.3496 2.50213 103.154 2.44256 107.024 2.38298C108.025 2.38298 109.026 2.38298 110.094 2.38298C112.63 2.38298 115.099 2.38298 117.635 2.38298C121.573 2.38298 125.443 2.38298 129.381 2.32341C130.649 2.32341 131.917 2.32341 133.185 2.32341C135.854 2.32341 138.524 2.32341 141.193 2.32341C141.393 2.32341 141.66 2.32341 141.861 2.32341C135.854 2.38298 129.781 2.44256 123.775 2.56171C121.239 2.62128 118.77 2.62128 116.234 2.68085C115.166 2.68085 114.032 2.68085 112.964 2.74043C109.293 2.8 105.69 2.91915 102.019 2.97873C97.8146 3.09788 93.6102 3.15745 89.4058 3.2766C88.6717 3.2766 88.0044 3.33617 87.2703 3.33617C85.0012 3.45532 82.7989 3.5149 80.5299 3.63405C75.9918 3.81277 71.4537 3.99149 66.9157 4.17022C66.2483 4.17022 65.5809 4.2298 64.9136 4.28937C62.7113 4.40852 60.4422 4.58724 58.2399 4.70639C54.2357 4.94469 50.2983 5.18298 46.2941 5.42128C45.2263 5.48086 44.0918 5.60001 43.024 5.65958C40.488 5.83831 37.9521 6.01703 35.4161 6.25533C32.2127 6.49363 28.9426 6.73193 25.7393 6.97022C21.268 7.32767 16.7299 7.68512 12.2585 8.04256C11.1908 8.10214 10.123 8.22129 8.98846 8.28086C7.0531 8.45959 5.11775 8.63831 3.18239 8.81703C2.98218 8.81703 2.78197 8.93618 2.78197 9.17448C2.78197 9.3532 2.98218 9.53193 3.18239 9.53193C3.91649 9.53193 4.58386 9.5915 5.31796 9.5915C5.25122 9.77022 5.18448 9.94895 5.18448 10.1277C5.18448 10.783 5.78511 11.3787 6.58595 11.3787C12.1251 11.0809 17.5975 10.7234 23.1366 10.4851C27.9416 10.3064 32.7466 10.0681 37.5516 9.88937C42.8238 9.65108 48.1627 9.41278 53.4349 9.23406C55.1033 9.17448 56.7717 9.1149 58.4401 8.99576C58.9073 8.99576 59.3745 8.93618 59.9083 8.93618C68.4506 8.75746 76.9929 8.51916 85.5351 8.34044C90.0732 8.22129 94.678 8.10214 99.2161 8.04256C100.884 7.98299 102.486 7.98299 104.155 7.92342C112.897 7.80427 121.64 7.68512 130.382 7.56597C134.119 7.5064 137.856 7.44682 141.594 7.38724C144.797 7.32767 148 7.32767 151.204 7.20852C153.873 7.14894 156.476 7.0298 159.145 6.97022C160.48 6.91065 161.815 6.91065 163.083 6.85107C166.086 6.67235 169.089 6.49362 172.092 6.3149C171.892 6.5532 171.892 6.91065 171.959 7.14895C172.026 7.44682 172.226 7.68512 172.559 7.80426C172.826 7.92341 173.227 8.04257 173.494 7.92342C174.161 7.68512 174.828 7.44682 175.429 7.20852C175.429 7.20852 175.429 7.20852 175.362 7.20852C175.429 7.20852 175.429 7.14895 175.496 7.14895C175.563 7.14895 175.629 7.08937 175.629 7.08937H175.563C175.896 6.97022 176.23 6.85108 176.63 6.67235C176.964 6.5532 177.364 6.37448 177.698 6.25533C178.099 6.0766 178.432 5.89788 178.833 5.71916C179.233 5.54043 179.5 5.06384 179.5 4.64682C179.5 4.40852 179.433 4.2298 179.3 3.9915C179.166 3.7532 178.833 3.45533 178.499 3.39575C178.165 3.33618 177.832 3.2766 177.498 3.2766C177.431 3.2766 177.364 3.2766 177.298 3.2766C177.097 3.2766 176.831 3.2766 176.63 3.33617C176.096 3.39575 175.629 3.45533 175.095 3.45533C174.695 3.45533 174.295 3.5149 173.827 3.5149C172.693 3.57447 171.625 3.63405 170.491 3.7532C170.224 3.7532 169.89 3.81277 169.623 3.81277C169.756 3.69362 169.823 3.57447 169.823 3.45533C169.89 3.33618 169.89 3.21703 169.89 3.09788C169.89 3.0383 169.89 2.91915 169.957 2.85958C169.957 2.74043 169.957 2.62128 169.89 2.56171C169.89 2.56171 169.957 2.56171 169.957 2.50213C170.157 2.38298 170.357 2.26383 170.491 2.02554C170.624 1.84681 170.691 1.60851 170.691 1.37022C170.691 1.13192 170.624 0.953195 170.491 0.714897C170.424 0.655323 170.357 0.536173 170.29 0.476598C170.09 0.297875 169.89 0.2383 169.69 0.178725C169.289 0.0595764 168.822 0 168.355 0C167.955 0 167.621 0 167.22 0C166.687 0 166.153 0 165.619 0C164.885 0 164.084 0 163.35 0C161.348 0 159.346 0 157.344 0C155.475 0 153.54 0 151.671 0C149.936 0 148.267 0 146.532 0C139.658 0 132.851 0.0595773 125.977 0.119152C120.839 0.178726 115.7 0.238299 110.561 0.238299C108.292 0.238299 105.956 0.297872 103.687 0.357446C98.5487 0.476595 93.41 0.53617 88.2713 0.655319C86.8031 0.655319 85.3349 0.714897 83.8667 0.714897C82.9991 0.714897 82.1983 0.774471 81.3307 0.774471C76.2588 0.953195 71.1868 1.13192 66.1148 1.31064C64.5799 1.37022 63.045 1.42979 61.4433 1.48936C60.5757 1.48936 59.7081 1.54894 58.8406 1.60852C53.7686 1.84681 48.7634 2.08511 43.6914 2.32341C41.0887 2.44256 38.486 2.5617 35.8832 2.74043C31.4119 2.97873 26.9406 3.21703 22.5359 3.5149C18.6652 3.7532 14.7945 3.93192 10.9238 4.11064C10.3232 4.17022 9.72256 4.17022 9.0552 4.22979C8.05415 4.28937 7.0531 4.28937 6.05206 4.34894C5.18448 4.40852 4.31691 4.40852 3.3826 4.40852C3.31586 4.22979 3.04892 4.05107 2.84871 4.05107C2.24808 4.11065 1.71419 4.17022 1.11356 4.22979C0.846617 4.22979 0.579671 4.34894 0.512935 4.64682C0.446198 4.94469 0.646407 5.24256 0.913353 5.30214C1.1803 5.36171 1.38051 5.42129 1.64745 5.48086C1.9144 5.54044 2.11461 5.54043 2.38155 5.54043C3.04892 5.77873 3.64955 5.77873 4.31691 5.83831ZM160.48 3.87235C161.281 3.87235 162.149 3.87235 162.949 3.87235C163.016 4.05107 163.15 4.17022 163.283 4.28937C162.949 4.28937 162.616 4.34894 162.349 4.34894C161.748 4.34894 161.147 4.40852 160.547 4.40852C157.877 4.46809 155.275 4.58724 152.605 4.64682C151.404 4.70639 150.203 4.76596 149.001 4.76596C147.133 4.76596 145.197 4.82554 143.329 4.82554C138.991 4.88511 134.72 4.94469 130.382 5.00426C121.973 5.12341 113.631 5.24256 105.222 5.36171C99.2161 5.42128 93.2098 5.60001 87.2035 5.77873C78.1941 6.01703 69.118 6.19575 60.1086 6.43405C58.3067 6.49363 56.5048 6.5532 54.7029 6.67235C49.5642 6.91065 44.4255 7.08937 39.2868 7.32767C34.2816 7.56597 29.2096 7.74469 24.2044 7.98299C23.7372 7.98299 23.2701 8.04256 22.8029 8.04256C24.1376 7.92341 25.5391 7.86384 26.8738 7.74469C31.6121 7.44682 36.3504 7.08937 41.0887 6.7915C42.7571 6.67235 44.4255 6.5532 46.0272 6.43405C46.8947 6.37448 47.7623 6.3149 48.5632 6.3149C53.5016 6.0766 58.4401 5.77873 63.3786 5.54043C64.3129 5.48086 65.314 5.42128 66.2483 5.36171C67.6498 5.30213 69.0512 5.24256 70.386 5.24256C75.4579 5.06384 80.5299 4.88511 85.6019 4.70639C86.7364 4.64682 87.8709 4.64682 88.9387 4.58724C89.2056 4.58724 89.5393 4.58724 89.8063 4.58724C90.6071 4.58724 91.4079 4.58724 92.142 4.52766C97.214 4.40852 102.353 4.34894 107.425 4.22979C109.76 4.17022 112.096 4.11064 114.432 4.11064C121.973 4.05107 129.581 3.99149 137.122 3.93192C145.064 3.93192 152.805 3.93192 160.48 3.87235Z" fill="#FFDD00"/>
<path d="M14.3916 14C14.6128 14 14.792 13.84 14.792 13.6426C14.792 13.4452 14.6128 13.2852 14.3916 13.2852C14.1705 13.2852 13.9912 13.4452 13.9912 13.6426C13.9912 13.84 14.1705 14 14.3916 14Z" fill="#FFDD00"/>
</svg>
