<svg width="47" height="50" viewBox="0 0 47 50" fill="none" xmlns="http://www.w3.org/2000/svg">
<ellipse opacity="0.1" cx="23.5" cy="25" rx="23.5" ry="25" fill="#FFDD00"/>
<path fill-rule="evenodd" clip-rule="evenodd" d="M21.183 20.1318C20.8815 19.9549 20.5111 19.9562 20.2108 20.1351C19.9104 20.314 19.7256 20.6435 19.7256 21V29C19.7256 29.3565 19.9104 29.686 20.2108 29.8649C20.5111 30.0438 20.8815 30.0451 21.183 29.8682L28.0016 25.8682C28.3051 25.6902 28.4924 25.3589 28.4924 25C28.4924 24.6411 28.3051 24.3098 28.0016 24.1318L21.183 20.1318ZM25.5549 25L21.6738 27.2768V22.7232L25.5549 25Z" fill="#FFDD00"/>
<path fill-rule="evenodd" clip-rule="evenodd" d="M11.9326 25C11.9326 21.2503 11.9326 19.3754 12.8628 18.0611C13.1632 17.6366 13.5268 17.2633 13.9403 16.9549C15.2206 16 17.0469 16 20.6995 16H26.544C30.1966 16 32.0229 16 33.3032 16.9549C33.7167 17.2633 34.0803 17.6366 34.3807 18.0611C35.3109 19.3754 35.3109 21.2503 35.3109 25C35.3109 28.7497 35.3109 30.6246 34.3807 31.9389C34.0803 32.3634 33.7167 32.7367 33.3032 33.0451C32.0229 34 30.1966 34 26.544 34H20.6995C17.0469 34 15.2206 34 13.9403 33.0451C13.5268 32.7367 13.1632 32.3634 12.8628 31.9389C11.9326 30.6246 11.9326 28.7497 11.9326 25ZM20.6995 18H26.544C28.4137 18 29.6595 18.0027 30.6034 18.1077C31.5108 18.2087 31.9054 18.3845 32.1581 18.5729C32.4061 18.758 32.6243 18.982 32.8046 19.2366C32.9881 19.496 33.1594 19.9011 33.2578 20.8327C33.36 21.8017 33.3627 23.0806 33.3627 25C33.3627 26.9194 33.36 28.1983 33.2578 29.1673C33.1594 30.0989 32.9881 30.504 32.8046 30.7634C32.6243 31.018 32.4061 31.242 32.1581 31.4271C31.9054 31.6155 31.5108 31.7913 30.6034 31.8923C29.6595 31.9973 28.4137 32 26.544 32H20.6995C18.8298 32 17.584 31.9973 16.6401 31.8923C15.7327 31.7913 15.3381 31.6155 15.0854 31.4271C14.8373 31.242 14.6192 31.018 14.4389 30.7634C14.2553 30.504 14.0841 30.0989 13.9857 29.1673C13.8835 28.1983 13.8808 26.9194 13.8808 25C13.8808 23.0806 13.8835 21.8017 13.9857 20.8327C14.0841 19.9011 14.2553 19.496 14.4389 19.2366C14.6192 18.982 14.8373 18.758 15.0854 18.5729C15.3381 18.3845 15.7327 18.2087 16.6401 18.1077C17.584 18.0027 18.8298 18 20.6995 18Z" fill="#FFDD00"/>
</svg>
