<svg width="48" height="48" viewBox="0 0 48 48" fill="none" xmlns="http://www.w3.org/2000/svg">
<rect x="0.5" y="0.5" width="47" height="47" rx="23.5" stroke="#CBD5E1"/>
<g clip-path="url(#clip0_491_10828)">
<path d="M36 24C36 17.3726 30.6274 12 24 12C17.3726 12 12 17.3726 12 24C12 29.6275 15.8746 34.3498 21.1013 35.6467V27.6672H18.6269V24H21.1013V22.4198C21.1013 18.3355 22.9498 16.4424 26.9597 16.4424C27.72 16.4424 29.0318 16.5917 29.5685 16.7405V20.0645C29.2853 20.0347 28.7933 20.0198 28.1822 20.0198C26.2147 20.0198 25.4544 20.7653 25.4544 22.703V24H29.3741L28.7006 27.6672H25.4544V35.9122C31.3963 35.1946 36.0005 30.1354 36.0005 24H36Z" fill="#94A3B8"/>
<path d="M28.7002 27.6672L29.3737 24H25.454V22.703C25.454 20.7653 26.2143 20.0198 28.1818 20.0198C28.7929 20.0198 29.2849 20.0347 29.5681 20.0645V16.7405C29.0314 16.5912 27.7196 16.4424 26.9593 16.4424C22.9493 16.4424 21.1009 18.3355 21.1009 22.4198V24H18.6265V27.6672H21.1009V35.6467C22.0292 35.8771 23.0002 36 23.9996 36C24.4916 36 24.9769 35.9697 25.4535 35.9121V27.6672H28.6997H28.7002Z" fill="white"/>
</g>
<defs>
<clipPath id="clip0_491_10828">
<rect width="24" height="24" fill="white" transform="translate(12 12)"/>
</clipPath>
</defs>
</svg>
